# xmcd
#
# Track frame offsets: 
#        150
#        12708
#        28054
#        41551
#        57245
#        73724
#        93504
#        115638
#        128651
#
# Disc length: 1885 seconds
#
# Revision: 0
# Processed by: cddbd v1.5.2PL0 Copyright (c) Steve Scherf et al.
# Submitted via: ExactAudioCopy v1.2
#
DISCID=77075b09
DTITLE=Tommy Dardar - Big Daddy Gumbo
DYEAR=2018
DGENRE=Blues
TTITLE0=It's Good to Be King
TTITLE1=Headed Down to Houma
TTITLE2=Baby I Can Tell
TTITLE3=C'mon Second Line
TTITLE4=Let's Both Go Back to New Orleans
TTITLE5=Dangerous Woman
TTITLE6=In My Mind
TTITLE7=Shake a Leg
TTITLE8=Big Daddy Gumbo
EXTD=
EXTT0=
EXTT1=
EXTT2=
EXTT3=
EXTT4=
EXTT5=
EXTT6=
EXTT7=
EXTT8=
PLAYORDER=
